<?xml version="1.0" encoding="utf-8"?>
<!-- Generator: Adobe Illustrator 25.2.3, SVG Export Plug-In . SVG Version: 6.00 Build 0)  -->
<svg version="1.1" id="Шар_1" xmlns="http://www.w3.org/2000/svg" xmlns:xlink="http://www.w3.org/1999/xlink" x="0px" y="0px"
	 viewBox="0 0 1157.8 216.7" style="enable-background:new 0 0 1157.8 216.7;" xml:space="preserve">
<style type="text/css">
	.st0{fill:#0278CF;}
</style>
<path class="st0" d="M0,0h102.2v102.2H0V0z M114.5,102.2h102.2V0H114.5V102.2z M0,216.7h102.2V114.5H0V216.7z M114.5,216.7h102.2
	V114.5H114.5V216.7z"/>
<g>
	<g>
		<path class="st0" d="M452.4,40.6l-35.6,129.9h-24.4l-24.7-90.9c-1-3.9-1.7-8.1-1.9-12.7h-0.4c-0.3,4.3-1,8.5-2.2,12.5l-24.8,91
			h-24.9L277.2,40.6h23.6l23.6,95.1c1,4,1.6,8.2,1.8,12.5h0.5c0.2-3.1,1.1-7.2,2.5-12.5l26.6-95.1H378l24.6,95.8
			c0.8,3.3,1.5,7.1,1.9,11.6h0.4c0.2-3,0.9-7,2.1-12l23.1-95.5H452.4z"/>
		<path class="st0" d="M472.1,64.6c-3.4,0-6.4-1.1-8.8-3.4c-2.4-2.2-3.7-5.1-3.7-8.5c0-3.4,1.2-6.3,3.7-8.6c2.4-2.3,5.4-3.4,8.8-3.4
			c3.6,0,6.6,1.1,9.1,3.4c2.5,2.3,3.7,5.2,3.7,8.6c0,3.3-1.2,6.1-3.7,8.4C478.7,63.4,475.7,64.6,472.1,64.6z M482.6,170.5h-21V77.7
			h21V170.5z"/>
		<path class="st0" d="M586.1,170.5h-21v-52.3c0-17.3-6.1-26-18.4-26c-6.4,0-11.7,2.4-15.9,7.2c-4.2,4.8-6.3,10.9-6.3,18.2v52.9
			h-21.1V77.7h21.1v15.4h0.4c6.9-11.7,17-17.6,30.1-17.6c10.1,0,17.8,3.3,23.1,9.8c5.3,6.6,8,16,8,28.4V170.5z"/>
		<path class="st0" d="M689.6,170.5h-21v-15.8h-0.4c-6.8,12-17.2,17.9-31.3,17.9c-11.4,0-20.5-4.1-27.4-12.5
			c-6.9-8.3-10.3-19.6-10.3-33.9c0-15.3,3.8-27.6,11.4-36.9c7.6-9.2,17.7-13.9,30.3-13.9c12.5,0,21.6,5,27.3,15h0.4V33.1h21V170.5z
			 M668.9,128.1v-12.1c0-6.6-2.1-12.2-6.4-16.8c-4.3-4.6-9.8-6.9-16.4-6.9c-7.9,0-14,2.9-18.5,8.8c-4.5,5.9-6.7,14-6.7,24.4
			c0,9.4,2.2,16.9,6.5,22.3c4.3,5.5,10.1,8.2,17.4,8.2c7.2,0,13-2.6,17.5-7.9C666.6,142.8,668.9,136.1,668.9,128.1z"/>
		<path class="st0" d="M751.7,172.6c-14.3,0-25.7-4.3-34.3-13c-8.5-8.7-12.8-20.2-12.8-34.5c0-15.6,4.5-27.8,13.4-36.5
			c8.9-8.8,20.9-13.1,36-13.1c14.5,0,25.8,4.3,33.9,12.8c8.1,8.5,12.1,20.3,12.1,35.4c0,14.8-4.4,26.6-13.1,35.6
			C778.2,168.2,766.4,172.6,751.7,172.6z M752.7,92.3c-8.2,0-14.7,2.9-19.5,8.6c-4.8,5.7-7.2,13.6-7.2,23.7c0,9.7,2.4,17.4,7.2,23
			c4.8,5.6,11.3,8.4,19.4,8.4c8.3,0,14.6-2.7,19.1-8.2c4.4-5.5,6.7-13.3,6.7-23.5c0-10.2-2.2-18.1-6.7-23.6
			C767.3,95.1,761,92.3,752.7,92.3z"/>
		<path class="st0" d="M939.6,77.7l-27.4,92.8h-22l-16.9-62.9c-0.7-2.4-1.1-5.1-1.3-8.2h-0.4c-0.1,2.1-0.7,4.7-1.6,8l-18.3,63h-21.6
			L803,77.7h21.7l16.8,66.9c0.5,2,0.9,4.7,1.1,8h0.6c0.2-2.5,0.7-5.3,1.5-8.2l18.8-66.7h19.7l16.7,67.1c0.5,2.1,0.9,4.8,1.2,8h0.6
			c0.1-2.2,0.6-4.9,1.4-8l16.5-67.1H939.6z"/>
		<path class="st0" d="M942.9,167.6v-19.5c7.9,6,16.5,9,26,9c12.7,0,19-3.7,19-11.2c0-2.1-0.5-3.9-1.6-5.4c-1.1-1.5-2.6-2.8-4.4-3.9
			c-1.8-1.1-4-2.2-6.5-3.1c-2.5-0.9-5.3-1.9-8.4-3.1c-3.8-1.5-7.2-3.1-10.3-4.8c-3.1-1.7-5.6-3.6-7.6-5.8c-2-2.1-3.5-4.6-4.6-7.3
			c-1-2.7-1.5-5.9-1.5-9.5c0-4.5,1.1-8.4,3.2-11.8c2.1-3.4,4.9-6.3,8.5-8.6c3.6-2.3,7.6-4.1,12.1-5.3c4.5-1.2,9.2-1.8,14-1.8
			c8.6,0,16.2,1.3,23,3.9v18.4c-6.5-4.5-14-6.7-22.5-6.7c-2.7,0-5.1,0.3-7.2,0.8c-2.1,0.5-4,1.3-5.5,2.3c-1.5,1-2.7,2.1-3.5,3.5
			c-0.8,1.4-1.3,2.9-1.3,4.5c0,2,0.4,3.7,1.3,5.1c0.8,1.4,2.1,2.6,3.8,3.7c1.7,1.1,3.7,2,6,2.9c2.3,0.9,5,1.8,8,2.9
			c4,1.6,7.6,3.3,10.7,5c3.2,1.7,5.9,3.6,8.1,5.8c2.2,2.1,4,4.6,5.2,7.4c1.2,2.8,1.8,6.1,1.8,10c0,4.7-1.1,8.8-3.3,12.3
			c-2.2,3.5-5.1,6.4-8.7,8.7c-3.6,2.3-7.8,4-12.5,5.1c-4.7,1.1-9.7,1.7-15,1.7C959.1,172.6,950.3,170.9,942.9,167.6z"/>
		<path class="st0" d="M1089.6,37.7v132.8h-21V63.4c-3.8,2.7-7.9,5-12.3,6.9c-4.4,1.9-9.4,3.6-15,5V57.4c3.5-1.1,6.9-2.4,10.1-3.6
			c3.3-1.3,6.5-2.7,9.6-4.3c3.2-1.6,6.4-3.3,9.6-5.3c3.2-1.9,6.6-4.1,10-6.6H1089.6z"/>
		<path class="st0" d="M1157.8,37.7v132.8h-21V63.4c-3.8,2.7-7.9,5-12.3,6.9c-4.4,1.9-9.4,3.6-15,5V57.4c3.5-1.1,6.9-2.4,10.1-3.6
			c3.3-1.3,6.5-2.7,9.6-4.3c3.2-1.6,6.4-3.3,9.6-5.3c3.2-1.9,6.6-4.1,10-6.6H1157.8z"/>
	</g>
</g>
</svg>
