<?xml version="1.0" encoding="iso-8859-1"?>
<!-- Generator: Adobe Illustrator 21.1.0, SVG Export Plug-In . SVG Version: 6.00 Build 0)  -->
<svg version="1.1" id="artwork" xmlns="http://www.w3.org/2000/svg" xmlns:xlink="http://www.w3.org/1999/xlink" x="0px" y="0px"
	 width="105.5763px" height="161.0023px" viewBox="0 0 105.5763 161.0023" enable-background="new 0 0 105.5763 161.0023"
	 xml:space="preserve">
<g>
	<g>
		<g>
			<path fill="#F05138" d="M105.5688,29.2426c-0.0063-1.0618-0.018-2.1231-0.0472-3.1861
				c-0.0619-2.3123-0.1986-4.6457-0.6096-6.9334c-0.417-2.3232-1.0987-4.4835-2.1732-6.5939
				c-1.0547-2.0726-2.4334-3.9691-4.0782-5.6139c-1.6444-1.6447-3.5409-3.0232-5.6144-4.0784
				c-2.1086-1.0732-4.2692-1.7547-6.5903-2.1718c-2.2889-0.4122-4.6223-0.548-6.9364-0.6105
				c-1.0625-0.0288-2.124-0.0409-3.1861-0.0474C75.0729,0,73.8113,0,72.5509,0H44.6035h-11.578c-1.2616,0-2.5218,0-3.7822,0.0072
				c-1.0624,0.0066-2.1252,0.0186-3.1861,0.0474c-0.5784,0.0156-1.1581,0.0358-1.7381,0.0638
				c-1.74,0.0839-3.4825,0.2376-5.1983,0.5467C17.38,0.978,15.7293,1.4395,14.1233,2.1035
				c-0.5354,0.2213-1.0658,0.4652-1.593,0.7335c-1.5551,0.7914-3.0111,1.7647-4.3353,2.8957
				c-0.4414,0.377-0.8682,0.7715-1.2792,1.1827c-1.645,1.6448-3.0238,3.5412-4.0784,5.6139
				c-1.0744,2.1104-1.7553,4.2707-2.1727,6.5939c-0.4107,2.2877-0.5471,4.6211-0.6093,6.9334
				c-0.0292,1.063-0.0415,2.1242-0.0484,3.1861c-0.0081,1.2607-0.0069,2.5221-0.0069,3.7828v17.211v22.314
				c0,1.2619-0.0012,2.522,0.0069,3.784c0.0069,1.0619,0.0192,2.1231,0.0484,3.1843c0.0622,2.3136,0.1986,4.6476,0.6093,6.9341
				c0.4174,2.3226,1.0982,4.4847,2.1727,6.5945c1.0546,2.0731,2.4334,3.9691,4.0784,5.6132
				c1.6438,1.6454,3.5409,3.0239,5.6145,4.0797c2.1089,1.0733,4.2692,1.7541,6.5909,2.1711
				c2.2874,0.4117,4.6226,0.5486,6.9361,0.6105c1.0609,0.0282,2.1237,0.0409,3.1861,0.0469
				c1.2604,0.009,2.5206,0.0078,3.7822,0.0078h39.5253c1.2604,0,2.522,0.0012,3.7825-0.0078
				c1.0621-0.0061,2.1236-0.0187,3.1861-0.0469c2.3141-0.0619,4.6475-0.1989,6.9364-0.6105c2.321-0.417,4.4817-1.0978,6.5903-2.1711
				c2.0735-1.0558,3.97-2.4343,5.6144-4.0797c1.6448-1.6441,3.0235-3.54,4.0782-5.6132c1.0744-2.1098,1.7562-4.272,2.1732-6.5945
				c0.4111-2.2865,0.5478-4.6205,0.6096-6.9341c0.0292-1.0612,0.0409-2.1224,0.0472-3.1843c0.0081-1.2619,0.0075-2.522,0.0075-3.784
				v-39.525C105.5763,31.7647,105.5769,30.5034,105.5688,29.2426z"/>
			<path fill="#FFFFFF" d="M83.6574,65.17c-0.0025-0.0031-0.0048-0.0054-0.0073-0.0085c0.1169-0.3974,0.2373-0.7925,0.3395-1.1999
				c4.382-17.458-6.3126-38.0985-24.41-48.9661c7.9307,10.7511,11.4374,23.7731,8.3219,35.1611
				c-0.2778,1.0157-0.612,1.9907-0.9813,2.9382c-0.4007-0.2632-0.9054-0.5622-1.5834-0.9359c0,0-18.0021-11.1152-37.5135-30.775
				c-0.512-0.5162,10.4044,15.6024,22.793,28.691c-5.8368-3.2756-22.1031-15.1108-32.4005-24.5356
				c1.2653,2.1099,2.77,4.1415,4.424,6.0975c8.5995,10.9057,19.814,24.3618,33.2498,34.6943
				c-9.4401,5.777-22.779,6.2262-36.06,0.0059c-3.2849-1.5395-6.3731-3.397-9.2317-5.5074
				c5.6219,8.9922,14.2803,16.7507,24.8184,21.2799c12.5671,5.4006,25.0642,5.0344,34.3719,0.0884l-0.0073,0.0107
				c0.0316-0.02,0.0672-0.0408,0.0997-0.061c0.4178-0.2239,0.8311-0.4542,1.2356-0.6966
				c4.4954-2.3085,13.2695-4.5862,17.9844,4.5872C90.2612,88.2958,92.7286,76.3315,83.6574,65.17z"/>
		</g>
	</g>
	<g id="XMLID_15_">
		<g>
			<path fill="#FFFFFF" d="M7.1663,150.8996c0.4061,3.606,3.8453,5.9702,8.6216,5.9702c4.5381,0,7.8099-2.3642,7.8099-5.6355
				c0-2.8183-1.9821-4.5386-6.5442-5.6845l-4.4182-1.1224c-6.3528-1.5765-9.219-4.4427-9.219-9.1711
				c0-5.8273,5.0871-9.8639,12.324-9.8639c7.0211,0,12.0128,4.0601,12.1801,9.9119h-4.657
				c-0.3587-3.5825-3.2723-5.7804-7.6426-5.7804c-4.3233,0-7.3324,2.2214-7.3324,5.4692c0,2.5315,1.8632,4.0366,6.4488,5.207
				l3.6779,0.9551c7.1171,1.7438,10.0307,4.5141,10.0307,9.5058c0,6.3528-5.0396,10.3414-13.0643,10.3414
				c-7.4512,0-12.5383-3.9652-12.9204-10.1027H7.1663z"/>
			<path fill="#FFFFFF" d="M58.0294,160.4288h-4.6815l-5.4692-19.0585h-0.0954l-5.4452,19.0585h-4.6809l-6.9263-24.9583h4.5376
				l4.8243,20.038h0.0959l5.4452-20.038h4.3942l5.4932,20.038h0.0959l4.8243-20.038h4.4896L58.0294,160.4288z"/>
			<path fill="#FFFFFF" d="M67.954,128.7596c0-1.504,1.2423-2.7223,2.7468-2.7223c1.5285,0,2.7703,1.2183,2.7703,2.7223
				c0,1.5051-1.2418,2.7469-2.7703,2.7469C69.1964,131.5064,67.954,130.2646,67.954,128.7596z M68.4321,135.4706h4.5616v24.9583
				h-4.5616V135.4706z"/>
			<path fill="#FFFFFF" d="M102.7826,139.149v-3.6785h-4.8243v-5.9702h-4.5381v5.9702h-8.7197v-2.1968
				c0.0234-2.2213,0.8837-3.153,2.9376-3.153c0.6683,0,1.3372,0.0725,1.8867,0.1674v-3.5825
				c-0.8122-0.1194-1.5525-0.1908-2.4121-0.1908c-4.8723,0-6.9263,2.0306-6.9263,6.6875v2.2682h-3.4866v3.6785h3.4866v21.2798
				h4.5375V139.149h8.6962v14.7362c0,4.8243,1.8392,6.6865,6.6156,6.6865c1.027,0,2.1973-0.0714,2.7228-0.1908v-3.7253
				c-0.3107,0.0479-1.2183,0.1193-1.7198,0.1193c-2.1254,0-3.0805-1.003-3.0805-3.2478V139.149H102.7826z"/>
		</g>
	</g>
</g>
<g>
</g>
<g>
</g>
<g>
</g>
<g>
</g>
<g>
</g>
<g>
</g>
</svg>
