<svg xmlns="http://www.w3.org/2000/svg" height="800" width="1200" viewBox="-29.8497 -15.839025 258.6974 95.03415"><path d="M0 51.1085V12.5919L34.072 0l18.517 5.9256v51.8489L34.072 63.356 0 51.1082l34.072 4.1003V10.3702L11.8507 15.555v30.369zm88.8772.2701c-5.3635 0-9.6585-1.7673-12.8853-5.3019-3.2268-3.5345-4.8402-8.1329-4.8402-13.7954 0-6.0844 1.6441-10.9377 4.9325-14.5599 3.2883-3.6225 7.7636-5.4336 13.426-5.4336 5.2226 0 9.4297 1.7585 12.6214 5.2753 3.1915 3.517 4.7874 8.1154 4.7874 13.7955 0 6.1722-1.6354 11.052-4.9061 14.6395-3.2708 3.5873-7.6494 5.381-13.1359 5.381zm.3165-35.0822c-3.9742 0-7.201 1.4331-9.6805 4.2994-2.4794 2.8664-3.7192 6.6296-3.7192 11.2895 0 4.66 1.209 8.41 3.6268 11.2499 2.418 2.84 5.57 4.26 9.4563 4.26 4.15 0 7.4208-1.3541 9.8123-4.0622 2.3915-2.708 3.5872-6.4975 3.5872-11.3686 0-4.994-1.1606-8.854-3.4817-11.5795-2.3213-2.7256-5.5217-4.0884-9.6014-4.0885zm33.4867-6.1219c-2.4442 0-4.4753.8325-6.1107 2.4767-1.6354 1.6442-2.4537 3.8815-2.4537 6.7126v4.3747h-4.606v3.7035h4.6061v23.3085h4.3053V27.442h10.5319v23.3085h4.3053V27.442h6.319v-3.7035h-6.319V19.572c0-3.8159 1.5121-5.7172 4.5367-5.7172 1.0727 0 2.0262.2196 2.8703.6944v-3.8887c-.7738-.3165-1.806-.486-3.1248-.486-2.4443 0-4.4986.8325-6.134 2.4766-1.6353 1.6443-2.4535 3.8815-2.4535 6.7126v4.3747h-10.5319V19.572c0-3.816 1.5122-5.7173 4.5368-5.7173 1.0727 0 2.0262.2197 2.8703.6944v-3.8886c-.7738-.3165-1.8292-.486-3.148-.4861zm23.1883 6.6985c-.7737 0-1.4331-.2637-1.9782-.7913-.5451-.5275-.8177-1.1957-.8177-2.0047 0-.8089.2726-1.4815.8177-2.0178.5451-.5363 1.2045-.8045 1.9782-.8045.7913 0 1.464.2682 2.0178.8045.554.5364.8309 1.209.831 2.0178-.0001.7738-.277 1.4332-.831 1.9782-.5539.5452-1.2265.8178-2.0178.8177zm2.1102 33.8681h-4.3258V23.731h4.3258zm24.5759-1.2397c-2.075 1.2485-4.5369 1.8727-7.3856 1.8727-3.8512 0-6.9592-1.2529-9.3244-3.7587-2.3651-2.5058-3.5478-5.7547-3.5478-9.7464 0-4.449 1.275-8.023 3.8247-10.7224 2.5497-2.6992 5.9524-4.0488 10.208-4.0488 2.3739 0 4.4665.4396 6.2777 1.3189v4.4312c-2.0047-1.4066-4.15-2.1101-6.436-2.1101-2.7609 0-5.0249.9891-6.7922 2.9675-1.7672 1.9783-2.6509 4.5764-2.6509 7.7944 0 3.1654.8309 5.6623 2.4927 7.4912 1.6617 1.8288 3.8905 2.7433 6.6866 2.7431 2.3564 0 4.572-.7825 6.6471-2.3476zm26.443-11.1823h-19.0705c.0703 3.007.8792 5.3282 2.4267 6.9635 1.5474 1.6354 3.6753 2.4531 6.3833 2.4531 3.0422 0 5.8382-1.0023 8.388-3.007v4.062c-2.374 1.7233-5.5129 2.585-9.4166 2.585-3.816 0-6.8142-1.2265-8.9947-3.6796-2.1806-2.453-3.2708-5.904-3.2708-10.353 0-4.2028 1.1913-7.6274 3.5741-10.2739 2.3828-2.6464 5.3414-3.9696 8.876-3.9696 3.5345 0 6.269 1.143 8.2032 3.429 1.9344 2.286 2.9015 5.4602 2.9015 9.5222zm-4.4312-3.6663c-.0176-2.497-.62-4.4401-1.8069-5.8294-1.187-1.3891-2.8355-2.0838-4.9457-2.0838-2.0398 0-3.772.7298-5.1964 2.1893-1.4244 1.4596-2.3035 3.3675-2.6377 5.7239z" fill="#eb3c00"/></svg>