<?xml version="1.0" encoding="utf-8"?>
<!-- Generator: Adobe Illustrator 24.3.0, SVG Export Plug-In . SVG Version: 6.00 Build 0)  -->
<svg version="1.1" id="Layer_1" xmlns="http://www.w3.org/2000/svg" xmlns:xlink="http://www.w3.org/1999/xlink" x="0px" y="0px"
	 viewBox="0 0 512 512" style="enable-background:new 0 0 512 512;" xml:space="preserve">
<g id="XMLID_1_">
	<path id="XMLID_5_" d="M462.6,398.98c-7.72,17.96-16.98,34.37-27.5,49.53c-14.45,20.62-26.38,34.93-35.5,42.93
		c-14.17,13.05-29.32,19.64-45.6,20.06c-11.64,0-25.67-3.37-42.09-10.1c-16.42-6.73-31.57-9.96-45.32-9.96
		c-14.45,0-30.02,3.37-46.58,9.96c-16.7,6.73-30.02,10.24-40.27,10.52c-15.57,0.7-31.15-6.17-46.58-20.62
		c-9.96-8.7-22.31-23.43-37.04-44.33c-15.85-22.45-29.04-48.26-39.28-77.87c-10.94-31.99-16.41-62.85-16.41-92.88
		c0-34.37,7.44-63.98,22.31-88.67c11.64-19.92,27.22-35.64,46.58-47.14c19.5-11.5,40.41-17.4,62.99-17.82
		c12.35,0,28.62,3.79,48.82,11.36c20.06,7.58,32.97,11.36,38.72,11.36c4.21,0,18.52-4.49,42.93-13.47
		c23.01-8.28,42.37-11.64,58.36-10.38c43.07,3.51,75.48,20.48,96.95,51.07c-38.58,23.29-57.52,55.98-57.24,97.93
		c0.28,32.69,12.21,59.91,35.5,81.51c10.52,9.96,22.31,17.82,35.5,23.29C468.77,383.55,465.83,391.4,462.6,398.98L462.6,398.98z
		 M363.83,10.21c0,25.67-9.4,49.53-28.06,71.69c-22.45,26.38-49.67,41.53-79.27,39.14c-0.42-3.09-0.56-6.31-0.56-9.68
		c0-24.55,10.66-50.93,29.74-72.39c9.54-10.94,21.61-19.92,36.2-27.22c14.59-7.16,28.48-11.08,41.39-11.79
		C363.55,3.33,363.83,6.84,363.83,10.21L363.83,10.21z"/>
</g>
</svg>
